<svg xmlns="http://www.w3.org/2000/svg" width="122.28" height="122.27" viewBox="0 0 122.28 122.27"><path d="M75.08,56.83a10.41,10.41,0,0,0-3.85-2.16,11.07,11.07,0,0,0-3.87-.41,14,14,0,0,0-3.91.89c-1.32.52-2.64,1.07-4,1.72-2.1-2.42-4.21-4.8-6.31-7a4.41,4.41,0,0,1,2.75-1.32,9,9,0,0,1,2.56.25c.82.21,1.58.39,2.27.53a2.14,2.14,0,0,0,1.86-.47A2.61,2.61,0,0,0,63.53,47a3.1,3.1,0,0,0-.9-2.25,5.08,5.08,0,0,0-3-1.74,9.33,9.33,0,0,0-3.64.09,12.06,12.06,0,0,0-3.53,1.4,13.5,13.5,0,0,0-2.68,2L49,45.72A1.48,1.48,0,0,0,48,45.33a1.35,1.35,0,0,0-1.07.52A1.49,1.49,0,0,0,47,48l.76.65a18.32,18.32,0,0,0-2.48,3.95,13.09,13.09,0,0,0-1.19,4.18,8.28,8.28,0,0,0,.41,3.78,7.22,7.22,0,0,0,2.32,3.11,9,9,0,0,0,6.53,2,19.63,19.63,0,0,0,8.13-2.46c2.31,2.67,4.62,5.32,6.94,7.78a6.24,6.24,0,0,1-2.59,1.46,4.1,4.1,0,0,1-2,0,6.52,6.52,0,0,1-1.7-.82,12.11,12.11,0,0,0-1.55-.92,3.61,3.61,0,0,0-1.56-.4,2.68,2.68,0,0,0-1.72.79,2.54,2.54,0,0,0-1,1.94,3.42,3.42,0,0,0,1,2.22,7.83,7.83,0,0,0,2.57,1.87,9.71,9.71,0,0,0,3.53.9,9.92,9.92,0,0,0,4.12-.64,11.92,11.92,0,0,0,4.3-2.91c.68.67,1.37,1.3,2.06,1.91a1.49,1.49,0,0,0,2.12-.2A1.54,1.54,0,0,0,76.38,75a1.36,1.36,0,0,0-.49-1c-.69-.55-1.38-1.13-2.06-1.74a21.56,21.56,0,0,0,2.81-4.45,13.9,13.9,0,0,0,1.24-4.31,7.56,7.56,0,0,0-.47-3.68A7.34,7.34,0,0,0,75.08,56.83ZM53.19,59.48a3.8,3.8,0,0,1-2.92-1.14,2.8,2.8,0,0,1-.76-1.26,4,4,0,0,1-.15-1.64,5.27,5.27,0,0,1,.53-1.82,7.38,7.38,0,0,1,1.27-1.83c2,2,4,4.14,6,6.37A9.28,9.28,0,0,1,53.19,59.48Zm18.47,7.84a8.16,8.16,0,0,1-1.23,1.73c-2.2-2.21-4.39-4.65-6.58-7.15l1.79-.78a8.91,8.91,0,0,1,1.9-.55,5,5,0,0,1,1.93.08,4,4,0,0,1,1.8,1.05,3.67,3.67,0,0,1,1,1.75,4.72,4.72,0,0,1,0,1.91A6.26,6.26,0,0,1,71.66,67.32Z" fill="#7300ff" fill-rule="evenodd"/><path d="M56.11,85.33h0a69.72,69.72,0,0,0-7,6.07,56.76,56.76,0,0,0-5.72,6.66l-2.68,3.65h0a2,2,0,0,0,3,2.45,1.8,1.8,0,0,0,.29-.39l2.5-3.42a52.43,52.43,0,0,1,5.33-6.19,61.63,61.63,0,0,1,6.71-5.77h0a1.56,1.56,0,0,0,.2-.16,2,2,0,0,0-2.62-2.9Z" fill="#7300ff" fill-rule="evenodd"/><path d="M70.45,28.7a65.44,65.44,0,0,1-6.57,5.65,2.05,2.05,0,0,0-.46.33,2,2,0,0,0,2.74,2.86h0a71,71,0,0,0,7-6.08,56.68,56.68,0,0,0,5.72-6.65l2.68-3.67h0a2,2,0,0,0-2.89-2.67,2,2,0,0,0-.34.48l-2.6,3.56A52.46,52.46,0,0,1,70.45,28.7Z" fill="#7300ff" fill-rule="evenodd"/><path d="M70.75,4.46A37.92,37.92,0,0,1,61,20.35c-6.21,6.2-14.17,10.83-22.61,15.73C29.63,41.16,20.58,46.4,13.17,53.81A50.37,50.37,0,0,0,.28,74.92a6.35,6.35,0,0,0,1.57,6.35L41,120.42a6.36,6.36,0,0,0,9,0,6.46,6.46,0,0,0,1.57-2.61,37.77,37.77,0,0,1,9.75-15.9c6.21-6.21,14.18-10.83,22.61-15.72,8.77-5.1,17.84-10.37,25.21-17.73A50.4,50.4,0,0,0,122,47.34,6.33,6.33,0,0,0,120.42,41L81.28,1.85A6.41,6.41,0,0,0,76.78,0a6.49,6.49,0,0,0-1.51.18,6.33,6.33,0,0,0-4.52,4.28Zm4.61,1.42L76.1,3.5l41.55,41.55-.27.87C111.65,64.48,96.31,73.38,81.47,82c-15,8.71-29.17,16.93-34.56,34.38l-.73,2.38L4.63,77.21l.27-.86C10.63,57.78,26,48.87,40.81,40.26,55.81,31.56,70,23.33,75.36,5.88Z" fill="#7300ff" fill-rule="evenodd"/></svg>