<svg xmlns="http://www.w3.org/2000/svg" width="142" height="129" viewBox="0 0 142 129"><path d="M131.75,39.72a4,4,0,0,0,4-4V23.21A4,4,0,0,0,133,19.4L72.2.35a3.93,3.93,0,0,0-2.4,0L9.05,19.4a4,4,0,0,0-2.8,3.81V35.72a4,4,0,0,0,4,4H21.32V97.66A17.79,17.79,0,0,0,6.25,115.21v9.63a4,4,0,0,0,4,4h121.5a4,4,0,0,0,4-4v-9.63a17.78,17.78,0,0,0-16.35-17.7V39.72ZM14.25,26.15,71,8.35l56.75,17.8v5.57H14.25Zm46.1,71.28V39.72h20V97.43Zm-8-57.71V97.43h-23V39.72Zm75.4,75.49v5.63H14.25v-5.63A9.79,9.79,0,0,1,24,105.43h94A9.79,9.79,0,0,1,127.75,115.21ZM111.4,97.43h-23V39.72h23Z" fill="#7300ff"/><rect width="142" height="129" fill="none"/></svg>