<svg xmlns="http://www.w3.org/2000/svg" width="145.67" height="129.76" viewBox="0 0 145.67 129.76"><path d="M145.67,34.59s0,0,0-.07a3.59,3.59,0,0,0,0-.46c0-.12,0-.23,0-.34s-.08-.24-.12-.36a3.17,3.17,0,0,0-.14-.4.26.26,0,0,0,0-.08L133.2,7.29A12.78,12.78,0,0,0,121.69,0H24A12.78,12.78,0,0,0,12.47,7.29L.38,32.88a.64.64,0,0,1,0,.07,3.66,3.66,0,0,0-.15.43c0,.12-.08.23-.11.34s0,.24,0,.36a3.27,3.27,0,0,0,0,.44s0,0,0,.07C0,42.7,6.23,49.47,14.45,50.93v63.9a14.94,14.94,0,0,0,14.93,14.93h86.91a15,15,0,0,0,14.93-14.93V50.93C139.43,49.47,145.67,42.7,145.67,34.59Zm-29.38,87.17H29.38a6.94,6.94,0,0,1-6.93-6.93V50.62a18,18,0,0,0,9.08-5.52,18.53,18.53,0,0,0,27.54,0,18.52,18.52,0,0,0,27.53,0,18.52,18.52,0,0,0,27.53,0,18,18,0,0,0,9.09,5.52v64.21A6.94,6.94,0,0,1,116.29,121.76ZM127.9,43.23c-5.39,0-9.77-3.88-9.77-8.64a4,4,0,0,0-8,0c0,4.76-4.38,8.64-9.76,8.64s-9.77-3.88-9.77-8.64a4,4,0,1,0-8,0c0,4.76-4.38,8.64-9.77,8.64s-9.76-3.88-9.76-8.64a4,4,0,1,0-8,0c0,4.76-4.38,8.64-9.77,8.64s-9.77-3.88-9.77-8.64a4,4,0,1,0-8,0c0,4.76-4.38,8.64-9.76,8.64-5.08,0-9.26-3.45-9.72-7.84L19.7,10.71A4.75,4.75,0,0,1,24,8h97.71A4.73,4.73,0,0,1,126,10.71l11.66,24.68C137.16,39.78,133,43.23,127.9,43.23ZM104.8,62.87H40.87a4,4,0,0,0-4,4V98a4,4,0,0,0,4,4H104.8a4,4,0,0,0,4-4V66.87A4,4,0,0,0,104.8,62.87Zm-4,31.1H44.87V70.87H100.8Z" fill="#7300ff"/></svg>