<svg xmlns="http://www.w3.org/2000/svg" width="67.7" height="67.7" viewBox="0 0 67.7 67.7"><path d="M33.85,67.7A33.85,33.85,0,1,0,0,33.85,33.92,33.92,0,0,0,33.85,67.7Z" fill="#ff5c1e" fill-rule="evenodd"/><path d="M38.12,33.27c-.52-.22-1.09-.44-1.68-.67V20.45a15.88,15.88,0,0,1,2,.37,18.53,18.53,0,0,1,5,2.27,1.75,1.75,0,1,0,1.77-3,21.74,21.74,0,0,0-5.91-2.65,20.64,20.64,0,0,0-2.9-.48v-4.1a1.75,1.75,0,0,0-3.5,0v4c-.56,0-1.12.09-1.64.17A10.56,10.56,0,0,0,25,20.19a7.94,7.94,0,0,0-1.94,5.88,7.78,7.78,0,0,0,4.06,6.21A36.87,36.87,0,0,0,32.94,35V47.43A15,15,0,0,1,30,47a13.5,13.5,0,0,1-5.52-3.24,1.75,1.75,0,0,0-2.24,2.69,17,17,0,0,0,6.87,3.94,19.22,19.22,0,0,0,3.86.56v3.51a1.75,1.75,0,0,0,3.5,0V50.8a14.8,14.8,0,0,0,3.09-.71A9.78,9.78,0,0,0,45.66,44a7,7,0,0,0-1.27-6.57C43.13,35.82,41.31,34.61,38.12,33.27Zm-9.14-4c-2-1.27-2.35-2.48-2.43-3.5a4.4,4.4,0,0,1,1.07-3.3,7.17,7.17,0,0,1,4.25-2c.33-.06.71-.08,1.07-.11V31.22A27.82,27.82,0,0,1,29,29.32ZM42.32,43a6.36,6.36,0,0,1-4,3.83,10.15,10.15,0,0,1-1.9.47V36.37l.32.13c2.6,1.09,4,2,4.86,3.09A3.54,3.54,0,0,1,42.32,43Z" fill="#fff"/></svg>