<svg xmlns="http://www.w3.org/2000/svg" width="135.08" height="131.34" viewBox="0 0 135.08 131.34"><path d="M118.42,15.56H104V5A5,5,0,0,0,94,5V15.56h-53V5a5,5,0,0,0-10,0V15.56H16.66A16.8,16.8,0,0,0,0,32.47v82a16.8,16.8,0,0,0,16.66,16.91H118.42a16.8,16.8,0,0,0,16.66-16.91v-82A16.8,16.8,0,0,0,118.42,15.56Zm-101.76,10h14.4v4.88a5,5,0,1,0,10,0V25.56H94v4.88a5,5,0,1,0,10,0V25.56h14.39a6.8,6.8,0,0,1,6.66,6.91V47.64H10V32.47A6.8,6.8,0,0,1,16.66,25.56Zm101.76,95.78H16.66A6.8,6.8,0,0,1,10,114.43V57.64H125.08v56.79A6.8,6.8,0,0,1,118.42,121.34Z" fill="#fff"/></svg>