<svg xmlns="http://www.w3.org/2000/svg" width="67.7" height="67.7" viewBox="0 0 67.7 67.7"><path d="M33.85,67.7A33.85,33.85,0,1,0,0,33.85,33.92,33.92,0,0,0,33.85,67.7Z" fill="#ff5c1e" fill-rule="evenodd"/><path d="M16.33,23.67a1.75,1.75,0,0,1,1.75-1.75H45.39l-5-5a1.75,1.75,0,0,1,2.47-2.48l8,8a1.74,1.74,0,0,1,.51,1.24,1.72,1.72,0,0,1-.51,1.23l-8,8a1.75,1.75,0,0,1-2.47-2.47l5-5H18.08A1.75,1.75,0,0,1,16.33,23.67ZM49.62,42.28H22.3l5-5a1.75,1.75,0,0,0-2.48-2.47l-8,8a1.76,1.76,0,0,0,0,2.48l8,8a1.74,1.74,0,0,0,2.48,0,1.75,1.75,0,0,0,0-2.47l-5-5H49.62a1.75,1.75,0,1,0,0-3.5Z" fill="#fff"/></svg>