<svg xmlns="http://www.w3.org/2000/svg" xmlns:xlink="http://www.w3.org/1999/xlink" width="92.08" height="92.08" viewBox="0 0 92.08 92.08"><defs><linearGradient id="a" x1="46.04" y1="91.53" x2="46.04" gradientUnits="userSpaceOnUse"><stop offset="0" stop-color="#0470e5"/><stop offset="1" stop-color="#14a0f8"/></linearGradient></defs><path d="M46.17,80.33c2.45,0,4.71,11.56,7.06,11.19a46,46,0,1,0-14.38,0C41.22,91.9,43.69,80.33,46.17,80.33Z" fill-rule="evenodd" fill="url(#a)"/><path d="M64,59.35,66,46H53.23V37.4c0-3.64,1.79-7.19,7.51-7.19h5.8V18.88a70.74,70.74,0,0,0-10.3-.9C45.72,18,38.85,24.36,38.85,35.9V46H27.16V59.35H38.85V91.52a46.44,46.44,0,0,0,14.38,0V59.35Z" fill="#fff" fill-rule="evenodd"/></svg>