<svg xmlns="http://www.w3.org/2000/svg" width="100.4" height="84.97" viewBox="0 0 100.4 84.97"><path d="M34,51.37a4.51,4.51,0,0,1-4.5,4.5h-8v24.6a4.5,4.5,0,0,1-9,0V55.87h-8a4.5,4.5,0,0,1,0-9h25A4.5,4.5,0,0,1,34,51.37ZM17,38.48a4.5,4.5,0,0,0,4.5-4.5V4.5a4.5,4.5,0,1,0-9,0V34A4.51,4.51,0,0,0,17,38.48Zm66.38,7a4.5,4.5,0,0,0,4.5-4.5V4.5a4.5,4.5,0,0,0-9,0V41A4.49,4.49,0,0,0,83.39,45.46Zm-33.19-6A4.5,4.5,0,0,0,45.7,44V80.47a4.5,4.5,0,0,0,9,0V44A4.5,4.5,0,0,0,50.2,39.51ZM62.71,20.2h-8V4.5a4.5,4.5,0,0,0-9,0V20.2h-8a4.5,4.5,0,0,0,0,9h25a4.5,4.5,0,0,0,0-9ZM95.9,55.51h-25a4.5,4.5,0,1,0,0,9h8v16a4.5,4.5,0,0,0,9,0v-16h8a4.5,4.5,0,0,0,0-9Z" fill="#7300ff"/></svg>