<svg xmlns="http://www.w3.org/2000/svg" width="133.08" height="133.08" viewBox="0 0 133.08 133.08"><path d="M111.1,17.16a4.08,4.08,0,0,0-.79-.7,66.43,66.43,0,0,0-90,2.29c-.27.24-.53.48-.79.74s-.5.52-.74.79a66.43,66.43,0,0,0-2.28,90,3.62,3.62,0,0,0,.69.77,66.44,66.44,0,0,0,95.64,3.24c.27-.24.54-.48.79-.74s.5-.52.74-.79a66.45,66.45,0,0,0-3.23-95.64ZM66.54,8a58.26,58.26,0,0,1,37.24,13.4A63.07,63.07,0,0,1,102,28.9,92.77,92.77,0,0,1,91.68,50.76C79,37,63.56,25.07,49.4,19A54.72,54.72,0,0,0,38,15.45,58.23,58.23,0,0,1,66.54,8ZM24.74,25.6l.86-.87c3.63-2.95,11.26-2.35,20.66,1.66C60,32.25,75,44,87.11,57.51a136.67,136.67,0,0,1-29.6,29.6C44,75,32.25,60,26.39,46.26,22.38,36.86,21.78,29.22,24.74,25.6ZM8,66.54A58.2,58.2,0,0,1,15.45,38,54.91,54.91,0,0,0,19,49.4c6,14.16,18,29.61,31.73,42.28A92.33,92.33,0,0,1,28.9,102a61.27,61.27,0,0,1-7.5,1.82A58.28,58.28,0,0,1,8,66.54Zm58.54,58.54A58.27,58.27,0,0,1,28,110.54c1.08-.28,2.17-.59,3.28-.93A101.43,101.43,0,0,0,57,97.11c8.76,7.25,18,13.21,26.7,16.94a54.91,54.91,0,0,0,11.42,3.58A58.2,58.2,0,0,1,66.54,125.08Zm41.81-17.6-.87.86c-3.62,3-11.26,2.36-20.66-1.65A102.94,102.94,0,0,1,63.71,92.36,147.27,147.27,0,0,0,92.36,63.71a102.5,102.5,0,0,1,14.33,23.11C110.71,96.22,111.3,103.86,108.35,107.48Zm5.7-23.8c-3.73-8.73-9.69-18-16.94-26.7a101.43,101.43,0,0,0,12.5-25.73c.34-1.1.65-2.2.93-3.28a58.44,58.44,0,0,1,7.09,67.13A54.72,54.72,0,0,0,114.05,83.68Z" fill="#7300ff"/></svg>