<svg xmlns="http://www.w3.org/2000/svg" viewBox="0 0 82.61 72.64"><path d="M77.06,4,73.72.61a2.59,2.59,0,0,0-3.78.51L58.31,12.66a42.77,42.77,0,0,0-17-3.33,42.79,42.79,0,0,0-17,3.34h0a46.16,46.16,0,0,0-16,10.85,44.35,44.35,0,0,0-8,11.37,3.37,3.37,0,0,0,0,2.91,44.35,44.35,0,0,0,8,11.37,46.38,46.38,0,0,0,7.21,6.13h0l-9.47,9.6a3,3,0,0,0-.51,3.78L8.91,72a2.6,2.6,0,0,0,3.78-.51L76.48,7.73A2.55,2.55,0,0,0,77.06,4Zm4.5,29.53,0,.08c.09.18.18.35.28.52l.12.24.3.58,0,.05a3.86,3.86,0,0,1,.23.73h0a3,3,0,0,1-.47,2.19A46.3,46.3,0,0,1,70.44,52.71l-.07.06a45.76,45.76,0,0,1-13.73,7.95l-.17.06a44.89,44.89,0,0,1-6.33,1.77h0a45.39,45.39,0,0,1-9,.9,49.8,49.8,0,0,1-9.81-1.09l.11-.11,8.46-8.47h1.46A17.39,17.39,0,0,0,58.75,36.36V34.9L72.26,21.54h0a44.06,44.06,0,0,1,9.29,11.95Zm-40.28-8.3a11.19,11.19,0,0,0-11.2,11.18,11,11,0,0,0,.63,3.69L26,44.79h0A17.47,17.47,0,0,1,49.77,21.11c-1.64,1.63-3.22,3.18-4.75,4.71A11.3,11.3,0,0,0,41.28,25.18Z" fill="#999" fill-rule="evenodd"/><rect width="82.61" height="72.64" fill="none"/></svg>