<svg xmlns="http://www.w3.org/2000/svg" width="434.97" height="128.24" viewBox="0 0 434.97 128.24"><path d="M91.37,29.56A31.64,31.64,0,0,1,108.76,31a28.41,28.41,0,0,1,12.66,10,39.56,39.56,0,0,1,6.66,16.7,5.24,5.24,0,0,1-.94,4.18,5.74,5.74,0,0,1-3.83,2.27L76,72.29a23.92,23.92,0,0,0,4.14,7.34,22.91,22.91,0,0,0,10,7,25.08,25.08,0,0,0,13.08.94,24.24,24.24,0,0,0,7.64-2.81,24.87,24.87,0,0,0,6-4.42,7.31,7.31,0,0,1,3.79-2.13,5.54,5.54,0,0,1,4,.64,6,6,0,0,1,2.93,3.71,4.46,4.46,0,0,1-1.31,4.19A34.87,34.87,0,0,1,116.77,94a38.92,38.92,0,0,1-11.6,4.17,38.07,38.07,0,0,1-19.09-1.24,32.66,32.66,0,0,1-14.65-10,35.44,35.44,0,0,1-7.64-17A37.06,37.06,0,0,1,65,51.21,31.79,31.79,0,0,1,74.73,37a34.4,34.4,0,0,1,16.64-7.43ZM241,45.48a20.12,20.12,0,0,0-6.16,9.83,27.78,27.78,0,0,0-1,7l41.41-7.15a26.41,26.41,0,0,0-3.57-7.24,18.39,18.39,0,0,0-19.1-7.64A23.06,23.06,0,0,0,241,45.48Zm-84.11,6.67A25.38,25.38,0,0,0,154,64.32a24.85,24.85,0,0,0,2.91,12A21.68,21.68,0,0,0,176.29,87.9h0a21.59,21.59,0,0,0,11.48-3.08,22.49,22.49,0,0,0,8-8.45,24.42,24.42,0,0,0,3-12,24.72,24.72,0,0,0-3-12.17,22.38,22.38,0,0,0-8-8.44,22.76,22.76,0,0,0-22.9,0,21.88,21.88,0,0,0-8,8.44ZM93.21,40.29a23.12,23.12,0,0,0-11.59,5.2,20.29,20.29,0,0,0-6.16,9.84,28,28,0,0,0-1,7l41.4-7.15a27,27,0,0,0-3.57-7.24,18.4,18.4,0,0,0-19.1-7.64Zm-35.45,0-19,24.81L58.78,89a6.74,6.74,0,0,1,1.83,4.48A5.19,5.19,0,0,1,59,97.22a5.67,5.67,0,0,1-4.09,1.49,7.82,7.82,0,0,1-2.4-.38,4.78,4.78,0,0,1-2.13-1.64l-20-24-19.08,24a6,6,0,0,1-4.55,2,5.09,5.09,0,0,1-4-1.57A5.44,5.44,0,0,1,1.3,93.29a7.37,7.37,0,0,1,1.77-4.55L22.56,64.3,1.79,39.71A7.47,7.47,0,0,1,0,35.35a5.47,5.47,0,0,1,1.25-4,5.15,5.15,0,0,1,4.17-1.63,5.8,5.8,0,0,1,4.78,2.15L30.9,56.56,49.45,31.89a5.33,5.33,0,0,1,2.14-1.67,7,7,0,0,1,2.52-.42,5,5,0,0,1,4.16,1.7,5.9,5.9,0,0,1,1.32,4.09,8,8,0,0,1-1.83,4.69ZM338.84,31.5a6.42,6.42,0,0,1,11.05,4.69V92.3a6.42,6.42,0,0,1-1.77,4.61,6.23,6.23,0,0,1-4.67,1.81v0A6.26,6.26,0,0,1,337,92.67V36.19a6.27,6.27,0,0,1,1.83-4.69ZM311.57,6.55V75.41a15.22,15.22,0,0,0,1.77,7.69,5.17,5.17,0,0,0,4.55,3H321a5.24,5.24,0,0,1,4.09,1.77,6.64,6.64,0,0,1,1.58,4.55A5.47,5.47,0,0,1,324.32,97a10.25,10.25,0,0,1-6.19,1.77h-.25v0a16.69,16.69,0,0,1-9.85-3,20.11,20.11,0,0,1-6.67-8.25,28.48,28.48,0,0,1-2.39-12V6.55a6.31,6.31,0,1,1,12.61-.48,3.84,3.84,0,0,1,0,.48ZM280,78.16a5.54,5.54,0,0,1,4,.64A5.93,5.93,0,0,1,287,82.51a4.45,4.45,0,0,1-1.31,4.19A34.72,34.72,0,0,1,276.11,94a38.63,38.63,0,0,1-11.59,4.19,38.06,38.06,0,0,1-19.09-1.24,32.69,32.69,0,0,1-14.66-10,35.42,35.42,0,0,1-7.63-17,37.06,37.06,0,0,1,1.17-18.69A31.79,31.79,0,0,1,234.07,37a34.44,34.44,0,0,1,16.64-7.43A31.64,31.64,0,0,1,268.1,31a28.36,28.36,0,0,1,12.66,10,39.71,39.71,0,0,1,6.67,16.7,5.28,5.28,0,0,1-.94,4.18,5.79,5.79,0,0,1-3.84,2.27l-47.26,8.18a24.1,24.1,0,0,0,4.13,7.34,23,23,0,0,0,10,7,25.08,25.08,0,0,0,13.08.94,24.39,24.39,0,0,0,7.65-2.81,25,25,0,0,0,6-4.42A7.24,7.24,0,0,1,280,78.16ZM211.11,64.31a37,37,0,0,1-4.22,17.83,32.55,32.55,0,0,1-11.54,12.47,31.89,31.89,0,0,1-30.24,1.54,32.61,32.61,0,0,1-10.67-8.38v34a6.34,6.34,0,0,1-1.77,4.61,6.56,6.56,0,0,1-11.07-4.26V64.31a36.5,36.5,0,0,1,4.69-17.91,33.6,33.6,0,0,1,12.38-12.53,34.81,34.81,0,0,1,47.68,12.27l.16.26a35,35,0,0,1,4.6,17.91ZM343.41,1.87a8.33,8.33,0,0,1,5.91,14.23,8,8,0,0,1-5.87,2.45,8.34,8.34,0,0,1,0-16.68ZM435,61.43v31a6.19,6.19,0,0,1-6.39,6.4h0a6.27,6.27,0,0,1-6.44-6.07V61.42a23,23,0,0,0-2.65-11.73A16.69,16.69,0,0,0,412.33,43a22.82,22.82,0,0,0-10.27-2.2,21.06,21.06,0,0,0-9.59,2.15,18.07,18.07,0,0,0-6.81,5.73,13.94,13.94,0,0,0-2.48,7V92.43a6.15,6.15,0,0,1-6.44,6.42,6.26,6.26,0,0,1-6.44-6.07V36.2a6.17,6.17,0,0,1,1.83-4.69,6.41,6.41,0,0,1,11.05,4.69v1.31a27.42,27.42,0,0,1,6.39-4.69,30.6,30.6,0,0,1,15-3.67,32.21,32.21,0,0,1,15.57,3.73A26.86,26.86,0,0,1,431,43.79,36,36,0,0,1,435,61.43Z" fill="#7300ff" fill-rule="evenodd"/></svg>