<svg xmlns="http://www.w3.org/2000/svg" width="148.28" height="134.25" viewBox="0 0 148.28 134.25"><path d="M8.48,134.25A4.25,4.25,0,0,1,4.23,130V50.23c0-20.67,18-37.48,40.18-37.48h59.46c22.16,0,40.18,16.81,40.18,37.48V73.3c0,20.66-18,37.47-40.18,37.47H35.53L11.36,133.12A4.24,4.24,0,0,1,8.48,134.25Zm35.93-113c-17.47,0-31.68,13-31.68,29v70.05L31,103.4a4.21,4.21,0,0,1,2.88-1.13h70c17.47,0,31.68-13,31.68-29V50.23c0-16-14.21-29-31.68-29Z" fill="#7300ff"/><rect width="148.28" height="134.25" fill="none"/></svg>