<svg xmlns="http://www.w3.org/2000/svg" width="98.9" height="95" viewBox="0 0 98.9 95"><path d="M75.23,57.64l17.5-15.43a4.93,4.93,0,0,0-2.84-8.61L66.8,31.42a4.33,4.33,0,0,1-3.5-2.55L54,7.48a4.88,4.88,0,0,0-9,0L35.76,28.87a4.45,4.45,0,0,1-3.5,2.55L9,33.6a5,5,0,0,0-2.84,8.61L23.65,57.64A4.29,4.29,0,0,1,25,61.8L19.87,84.51a4.91,4.91,0,0,0,7.28,5.3L47.22,78a4.43,4.43,0,0,1,4.35,0L71.63,89.81a4.92,4.92,0,0,0,7.29-5.3L73.81,61.8A4.73,4.73,0,0,1,75.23,57.64Z" fill="none" stroke="#fff" stroke-miterlimit="10" stroke-width="9" fill-rule="evenodd"/></svg>