<svg xmlns="http://www.w3.org/2000/svg" width="101.64" height="90.91" viewBox="0 0 101.64 90.91"><path d="M50.54,19.53a24.26,24.26,0,0,1,22.22-15c13.38,0,23,11.43,24.23,25.05,0,0,.66,3.38-.78,9.47A41.8,41.8,0,0,1,83.43,60.29L56.73,84.07A9.23,9.23,0,0,1,44.4,84L18.22,60.29A41.82,41.82,0,0,1,5.43,39c-1.43-6.09-.78-9.47-.78-9.47,1.21-13.63,10.85-25,24.23-25C38.82,4.5,46.81,10.69,50.54,19.53Z" fill="none" stroke="#fff" stroke-linecap="round" stroke-linejoin="round" stroke-width="9" fill-rule="evenodd"/></svg>