<svg xmlns="http://www.w3.org/2000/svg" width="139.76" height="136.26" viewBox="0 0 139.76 136.26"><path d="M69.88,34a17,17,0,1,0-17-17A17,17,0,0,0,69.88,34Zm0-26a9,9,0,1,1-9,9A9,9,0,0,1,69.88,8ZM32.06,45.29A16.59,16.59,0,1,0,15.47,28.71,16.6,16.6,0,0,0,32.06,45.29Zm0-25.17a8.59,8.59,0,1,1-8.59,8.59A8.59,8.59,0,0,1,32.06,20.12ZM114.54,48.7H95a4.69,4.69,0,0,0-.54.06,18.76,18.76,0,0,0-15.65-8.45H60.92a18.75,18.75,0,0,0-15.65,8.46,3.19,3.19,0,0,0-.54-.07H25.22A17.36,17.36,0,0,0,7.88,66V92.23a9.53,9.53,0,0,0,8.39,9.45v25.06a9.53,9.53,0,0,0,9.52,9.52H37.05a9.53,9.53,0,0,0,9.52-9.52v-26a4,4,0,0,0-8,0v26a1.54,1.54,0,0,1-1.52,1.52H25.79a1.54,1.54,0,0,1-1.52-1.52v-29a4,4,0,0,0-4-4H17.4a1.54,1.54,0,0,1-1.52-1.52V66a9.35,9.35,0,0,1,9.34-9.34H42.34a18.62,18.62,0,0,0-.17,2.37V88a10.11,10.11,0,0,0,9.27,10.06v28.08a10.12,10.12,0,0,0,10.11,10.1H78.21a10.12,10.12,0,0,0,10.11-10.1V98.08A10.11,10.11,0,0,0,97.59,88V59.07a18.62,18.62,0,0,0-.17-2.37h17.12A9.35,9.35,0,0,1,123.88,66V92.23a1.54,1.54,0,0,1-1.52,1.52h-2.87a4,4,0,0,0-4,4v29a1.54,1.54,0,0,1-1.52,1.52H102.71a1.54,1.54,0,0,1-1.52-1.52v-26a4,4,0,0,0-8,0v26a9.53,9.53,0,0,0,9.52,9.52H114a9.53,9.53,0,0,0,9.52-9.52V101.68a9.53,9.53,0,0,0,8.39-9.45V66A17.36,17.36,0,0,0,114.54,48.7ZM89.59,88a2.13,2.13,0,0,1-2.11,2.1H84.32a4,4,0,0,0-4,4v32a2.13,2.13,0,0,1-2.11,2.1H61.55a2.13,2.13,0,0,1-2.11-2.1v-32a4,4,0,0,0-4-4H52.28A2.13,2.13,0,0,1,50.17,88V59.07A10.77,10.77,0,0,1,60.92,48.32H78.84A10.77,10.77,0,0,1,89.59,59.07ZM107.7,45.29A16.59,16.59,0,1,0,91.12,28.71,16.6,16.6,0,0,0,107.7,45.29Zm0-25.17a8.59,8.59,0,1,1-8.58,8.59A8.6,8.6,0,0,1,107.7,20.12Z" fill="#7300ff"/><rect y="0.13" width="139.76" height="136" fill="none"/></svg>