<svg xmlns="http://www.w3.org/2000/svg" width="95" height="95" viewBox="0 0 95 95"><path d="M68.33,73.85a2.25,2.25,0,0,1-2.25-2.25V64.7a8.26,8.26,0,0,0-8.26-8.26H37.18a8.26,8.26,0,0,0-8.26,8.26v6.9a2.25,2.25,0,0,1-4.5,0V64.7A12.77,12.77,0,0,1,37.18,51.94H57.82A12.77,12.77,0,0,1,70.58,64.7v6.9A2.25,2.25,0,0,1,68.33,73.85ZM62.69,34.34A15.19,15.19,0,1,0,47.5,49.52,15.21,15.21,0,0,0,62.69,34.34Zm-4.5,0A10.69,10.69,0,1,1,47.5,23.65,10.7,10.7,0,0,1,58.19,34.34Z" fill="#ff5c1e"/><circle cx="47.5" cy="47.5" r="47.5" fill="none"/></svg>