<svg xmlns="http://www.w3.org/2000/svg" viewBox="0 0 82.61 72.64"><path d="M58.31,12.6h0a42.62,42.62,0,0,0-17-3.35,42.64,42.64,0,0,0-17,3.35h0a46.37,46.37,0,0,0-16,10.86,44.18,44.18,0,0,0-8,11.37A2.87,2.87,0,0,0,0,36.28a2.94,2.94,0,0,0,.33,1.46,44.35,44.35,0,0,0,8,11.37A46.13,46.13,0,0,0,31.39,62.19l-.11.1a49.05,49.05,0,0,0,9.81,1.09,45.46,45.46,0,0,0,9-.9,39.83,39.83,0,0,0,6.52-1.83,45.79,45.79,0,0,0,13.73-8A44.24,44.24,0,0,0,82.28,37.74a3.25,3.25,0,0,0,.26-2.13,3.36,3.36,0,0,0-.24-.74l0,0c-.09-.2-.19-.39-.29-.59L81.86,34l-.27-.52,0-.08a44.26,44.26,0,0,0-9.29-11.95h0A46.17,46.17,0,0,0,58.31,12.6Zm-17,12.51a11.18,11.18,0,1,1-11.2,11.17,11.19,11.19,0,0,1,11.2-11.17Zm0-6.26A17.44,17.44,0,1,1,23.79,36.28,17.45,17.45,0,0,1,41.27,18.85Z" fill="#999" fill-rule="evenodd"/><rect width="82.61" height="72.64" fill="none"/></svg>