<svg xmlns="http://www.w3.org/2000/svg" width="95.36" height="83.05" viewBox="0 0 95.36 83.05"><path d="M66.34,12.7H60.67v10h5.67a19,19,0,0,1,0,38H58l4.06-4.82a5,5,0,0,0-7.61-6.48l0,0L43.77,62.12a5,5,0,0,0,0,6.44L54.44,81.24a5,5,0,0,0,7.69-6.39l0,0-3.42-4.1h7.69a29,29,0,0,0,0-58Z" fill="#fff"/><path d="M50.49,14.52,39.82,1.8a5,5,0,0,0-7.69,6.4l0,0,3.75,4.46H29a29,29,0,0,0,0,58h5.67v-10H29a19,19,0,0,1,0-38h6.92l-3.75,4.46a5,5,0,1,0,7.61,6.49l0,0L50.49,20.92A5,5,0,0,0,50.49,14.52Z" fill="#fff"/></svg>