<svg xmlns="http://www.w3.org/2000/svg" width="95.19" height="90.64" viewBox="0 0 95.19 90.64"><path d="M71.25,60.88l9.89,28.53a.55.55,0,0,1,0,.5l0,0a.64.64,0,0,1-.9.2L54.88,72.39l0,0a.62.62,0,0,1,0-.87L70.21,60.31h.2l.06,0A.69.69,0,0,1,71.25,60.88ZM95.08,34.55a.64.64,0,0,0-.55-.28H60L49,.52A.66.66,0,0,0,48.2,0h0a.72.72,0,0,0-.49.5l-9,28.07-1.8,5.68H.73a.54.54,0,0,0-.54.27.66.66,0,0,0,0,.92l28.68,20a.69.69,0,0,1,.24.77L18,89.83a.62.62,0,0,0,0,.62.69.69,0,0,0,1,0l76-55A.66.66,0,0,0,95.08,34.55Z" fill="#b7b7b7"/></svg>