<svg xmlns="http://www.w3.org/2000/svg" width="92.08" height="92.08" viewBox="0 0 92.08 92.08"><circle cx="46.04" cy="46.04" r="46.04" transform="translate(-4.28 4.72) rotate(-5.6)" fill="#1ca1f1"/><path d="M38.41,69.8c20.6,0,31.86-17.06,31.86-31.86,0-.49,0-1,0-1.45a23,23,0,0,0,5.59-5.79,22.89,22.89,0,0,1-6.44,1.76,11.25,11.25,0,0,0,4.93-6.2A22.29,22.29,0,0,1,67.21,29,11.21,11.21,0,0,0,48.12,39.19a31.75,31.75,0,0,1-23.07-11.7,11.2,11.2,0,0,0,3.46,15A11,11,0,0,1,23.43,41v.14a11.2,11.2,0,0,0,9,11,11.25,11.25,0,0,1-2.94.39,10.63,10.63,0,0,1-2.11-.2,11.21,11.21,0,0,0,10.46,7.78,22.48,22.48,0,0,1-13.89,4.8h0a21.74,21.74,0,0,1-2.67-.16,31.72,31.72,0,0,0,17.13,5h0Z" fill="#fff" fill-rule="evenodd"/></svg>