<svg xmlns="http://www.w3.org/2000/svg" width="145.8" height="131.3" viewBox="0 0 145.8 131.3"><path d="M102.93,68.88a41,41,0,1,0-60.06,0c-18.6,9.5-34,27.4-34,40.43,0,11.1,31.7,22,64,22s64-10.89,64-22C136.9,96.28,121.53,78.38,102.93,68.88ZM72.9,8a33,33,0,1,1-33,33A33,33,0,0,1,72.9,8Zm0,115.3c-32.23,0-53.88-10.45-56-14.29.29-9.44,14.56-26.38,32.53-34.42a40.86,40.86,0,0,0,46.92,0c18,8,32.24,25,32.54,34.41C126.78,112.85,105.13,123.3,72.9,123.3Z" fill="#7300ff"/><rect y="0.15" width="145.8" height="131" fill="none"/></svg>