<svg xmlns="http://www.w3.org/2000/svg" width="92.08" height="92.08" viewBox="0 0 92.08 92.08"><circle cx="46.04" cy="46.04" r="46.04" fill="#ed3537"/><path d="M72.44,32.78a6.9,6.9,0,0,0-4.87-4.88C63.27,26.75,46,26.75,46,26.75s-17.23,0-21.53,1.15a6.9,6.9,0,0,0-4.87,4.88C18.49,37.07,18.49,46,18.49,46s0,9,1.15,13.26a6.92,6.92,0,0,0,4.87,4.88C28.81,65.33,46,65.33,46,65.33s17.23,0,21.53-1.15a6.92,6.92,0,0,0,4.87-4.88C73.59,55,73.59,46,73.59,46s0-9-1.15-13.26ZM40.53,54.31V37.77L54.85,46Z" fill="#fdfdfd" fill-rule="evenodd"/></svg>